<!DOCTYPE svg PUBLIC "-//W3C//DTD SVG 1.1//EN" "http://www.w3.org/Graphics/SVG/1.1/DTD/svg11.dtd">
<!-- Uploaded to: SVG Repo, www.svgrepo.com, Transformed by: SVG Repo Mixer Tools -->
<svg version="1.1" id="Layer_1" xmlns="http://www.w3.org/2000/svg" xmlns:xlink="http://www.w3.org/1999/xlink" viewBox="0 0 511.999 511.999" xml:space="preserve" width="150px" height="150px" fill="#000000">
<g id="SVGRepo_bgCarrier" stroke-width="0"/>
<g id="SVGRepo_tracerCarrier" stroke-linecap="round" stroke-linejoin="round"/>
<g id="SVGRepo_iconCarrier"> <polygon style="fill:#FFB64C;" points="79.355,96.868 79.355,499.772 273.091,402.904 273.091,0 "/> <polygon style="fill:#FF9800;" points="181.921,45.585 181.921,448.489 273.091,402.904 273.091,0 "/> <rect x="79.361" y="90.338" style="fill:#FFE470;" width="353.283" height="421.661"/> <rect x="255.991" y="90.338" style="fill:#FFDA2D;" width="176.642" height="421.661"/> <polygon style="fill:#FFB64C;" points="255.997,130.798 177.013,209.783 253.218,288.793 335.483,210.285 "/> <rect x="238.897" y="346.753" style="fill:#3ACC8F;" width="34.189" height="102.566"/> <rect x="255.991" y="346.753" style="fill:#00C37A;" width="17.094" height="102.566"/> <path style="fill:#FF3D63;" d="M255.997,242.805l-96.868-96.868V266.98c0,53.413,43.455,96.868,96.868,96.868 s96.868-43.455,96.868-96.868V145.937L255.997,242.805z"/> <polygon style="fill:#FF9800;" points="255.997,130.226 255.997,285.569 335.483,209.712 "/> <path style="fill:#FF0536;" d="M255.997,242.233v121.043c53.413,0,96.868-43.455,96.868-96.868V145.365L255.997,242.233z"/> </g>
</svg>